<svg id="visual" viewBox="0 0 500 510" width="500" height="510" xmlns="http://www.w3.org/2000/svg" xmlns:xlink="http://www.w3.org/1999/xlink" version="1.1"><rect x="0" y="0" width="500" height="510" fill="#001220"></rect><defs><linearGradient id="grad1_0" x1="0%" y1="0%" x2="100%" y2="100%"><stop offset="30%" stop-color="#001220" stop-opacity="1"></stop><stop offset="70%" stop-color="#001220" stop-opacity="1"></stop></linearGradient></defs><defs><linearGradient id="grad2_0" x1="0%" y1="0%" x2="100%" y2="100%"><stop offset="30%" stop-color="#001220" stop-opacity="1"></stop><stop offset="70%" stop-color="#001220" stop-opacity="1"></stop></linearGradient></defs><g transform="translate(500, 0)"><path d="M0 232.1C-20.5 232.2 -41 232.3 -60.1 224.2C-79.2 216.1 -96.9 199.9 -103 178.4C-109.1 156.9 -103.6 130 -120.2 120.2C-136.8 110.4 -175.5 117.7 -186.2 107.5C-196.9 97.3 -179.6 69.7 -182.6 48.9C-185.5 28.1 -208.8 14 -232.1 0L0 0Z" fill="#FF0066"></path></g><g transform="translate(0, 510)"><path d="M0 -232.1C13.4 -204 26.9 -175.8 46.1 -171.9C65.3 -168 90.2 -188.4 109 -188.8C127.8 -189.2 140.6 -169.6 154.1 -154.1C167.7 -138.7 182.2 -127.3 194.9 -112.5C207.5 -97.7 218.3 -79.4 224.2 -60.1C230.1 -40.8 231.1 -20.4 232.1 0L0 0Z" fill="#FF0066"></path></g></svg>