<svg id="visual" viewBox="0 0 480 660" width="480" height="660" xmlns="http://www.w3.org/2000/svg" xmlns:xlink="http://www.w3.org/1999/xlink" version="1.1"><rect x="0" y="0" width="480" height="660" fill="#001220"></rect><defs><linearGradient id="grad1_0" x1="0%" y1="0%" x2="100%" y2="100%"><stop offset="30%" stop-color="#001220" stop-opacity="1"></stop><stop offset="70%" stop-color="#001220" stop-opacity="1"></stop></linearGradient></defs><defs><linearGradient id="grad2_0" x1="0%" y1="0%" x2="100%" y2="100%"><stop offset="30%" stop-color="#001220" stop-opacity="1"></stop><stop offset="70%" stop-color="#001220" stop-opacity="1"></stop></linearGradient></defs><g transform="translate(480, 0)"><path d="M0 183.6C-14.2 158.5 -28.4 133.3 -53.2 128.4C-78 123.5 -113.4 138.8 -129.8 129.8C-146.3 120.9 -143.9 87.7 -149.7 62C-155.5 36.3 -169.5 18.2 -183.6 0L0 0Z" fill="#FBAE3C"></path></g><g transform="translate(0, 660)"><path d="M0 -183.6C24.9 -179.2 49.8 -174.7 67 -161.7C84.2 -148.6 93.7 -126.9 111.7 -111.7C129.7 -96.5 156.2 -87.8 169.6 -70.3C183 -52.7 183.3 -26.4 183.6 0L0 0Z" fill="#FBAE3C"></path></g></svg>